<svg width="2460" height="957" viewBox="0 0 2480 960" fill="none" xmlns="http://www.w3.org/2000/svg">
<path d="M1809.52 607.806L1799.82 676.395C1749.56 904.061 1500.2 1027.71 1293 915.814C1098.52 810.797 1046.21 544.047 1186.75 372.452C1371.61 146.759 1718.29 229.96 1795.13 503.634L1809.52 591.705V253.588H1957.35C2043.57 347.899 2122.73 448.005 2211.63 539.378V241.513H2460V939.885L2454.09 945.923H2300.34L2046.06 660.134V945.923H1809.52V607.806ZM1438 500.172C1330.02 516.192 1332.3 689.638 1444.89 700.305C1596.04 714.635 1592.06 477.309 1438 500.172Z" fill="black"/>
<path d="M567.692 539.376L580.307 493.932C651.584 252.46 962.711 158.995 1147.25 332.038C1152.22 336.667 1162.78 345.482 1163.06 352.164L984.157 526.978C903.379 450.057 777.58 541.992 825.006 644.957C854.692 709.441 937.677 718.9 987.587 672.892L1161.29 845.17C1165.39 852.698 1145.63 870.167 1139.48 875.722C975.839 1024.13 694.95 963.672 599.703 758.226L567.692 660.092V949.906H311.442V249.562H567.692V539.376Z" fill="black"/>
<path d="M256.25 499.123H-0.000366211V949.946H256.25V499.123Z" fill="black"/>
<path d="M567.692 0H311.442V193.21H567.692V0Z" fill="black"/>
<path d="M256.25 249.562H-0.000366211V438.746H256.25V249.562Z" fill="black"/>
</svg>
