<svg width="90" height="23" viewBox="0 0 90 23" fill="none" xmlns="http://www.w3.org/2000/svg">
    <g style="mix-blend-mode:difference">
        <path d="M82.8408 16.0469H90V22.2471H74.5449V0H82.8408V16.0469ZM75.0557 21.7363H75.0576V0.513672H82.3291V0.511719H75.0557V21.7363ZM82.3311 16.5596H89.4883V16.5576H82.3311V16.5596Z" fill="white"/>
        <path d="M73.7764 22.2471H65.0684L64.248 19.0771H58.3887L57.5693 22.2471H50.3262L56.54 0.37207L56.6455 0H67.6367L73.7764 22.2471ZM57.0303 0.513672H67.2461L73.1035 21.7363H73.1055L67.248 0.511719H57.0312L57.0303 0.513672ZM59.3223 13.5879H63.3125L63.3115 13.5859H59.3232L61.332 5.97559L59.3223 13.5879ZM59.9863 13.0752H62.6523L61.3281 7.98828L59.9863 13.0752Z" fill="white"/>
        <path d="M53.7871 6.25781H48.751V22.2471H40.2285V6.25781H35.1914V0H53.7871V6.25781ZM40.7402 21.7363H40.7412V5.74902H40.7402V21.7363ZM35.7021 5.74707H35.7041V0.513672H53.2773V0.511719H35.7021V5.74707Z" fill="white"/>
        <path d="M34.3105 15.9922C34.3104 18.2539 33.8335 19.8662 32.7324 20.8936C31.6388 21.9133 30.0425 22.247 28.082 22.2471H22.0527V16.2168H23.1299C24.2493 16.2168 24.8707 16.0304 25.2324 15.6787C25.5913 15.3297 25.8164 14.6968 25.8164 13.4727V0H34.3105V15.9922ZM31.0234 21.3242C31.0286 21.3224 31.0339 21.3212 31.0391 21.3193C31.0339 21.3212 31.0286 21.3224 31.0234 21.3242ZM31.2344 21.2422C31.2526 21.2346 31.271 21.2275 31.2891 21.2197C31.271 21.2275 31.2526 21.2346 31.2344 21.2422ZM31.459 21.1416C31.4775 21.1327 31.4963 21.1244 31.5146 21.1152C31.4963 21.1244 31.4775 21.1326 31.459 21.1416ZM31.6699 21.0322C31.6936 21.0191 31.717 21.0057 31.7402 20.9922C31.717 21.0058 31.6936 21.0191 31.6699 21.0322ZM31.8662 20.915C31.8941 20.8973 31.9219 20.8797 31.9492 20.8613C31.922 20.8798 31.8941 20.8973 31.8662 20.915ZM32.0527 20.7891C32.0919 20.7606 32.1301 20.7311 32.168 20.7012C32.1302 20.7312 32.0919 20.7605 32.0527 20.7891ZM32.2236 20.6562C32.2669 20.6205 32.3091 20.5837 32.3506 20.5459C32.3091 20.5837 32.2669 20.6205 32.2236 20.6562ZM32.4053 20.4951C32.4504 20.4522 32.4942 20.4078 32.5371 20.3623C32.4942 20.4079 32.4504 20.4521 32.4053 20.4951ZM32.5615 20.3359C32.6094 20.2841 32.6561 20.231 32.7012 20.1758C32.6562 20.231 32.6093 20.2841 32.5615 20.3359ZM33.0107 19.7324C33.4919 18.927 33.7529 17.8398 33.793 16.3975L33.7988 15.9922V0.511719H26.3271V0.513672H33.7949V15.9932C33.7949 17.6373 33.5347 18.8533 33.0107 19.7324ZM25.1445 16.3623C24.65 16.6228 23.9871 16.7266 23.1299 16.7266H22.5635V16.7295H23.126C23.9856 16.7295 24.6496 16.6246 25.1445 16.3623ZM32.7207 20.1523C32.7686 20.0927 32.8137 20.0304 32.8584 19.9668C32.8138 20.0304 32.7685 20.0926 32.7207 20.1523ZM32.877 19.9404C32.918 19.8809 32.9578 19.8199 32.9961 19.7568C32.9579 19.8199 32.9179 19.8809 32.877 19.9404Z" fill="white"/>
        <path d="M11.7461 0C14.4654 1.87389e-05 16.984 0.570909 18.8271 2.14746C20.6856 3.73723 21.7656 6.27039 21.7656 9.99219V12.1709C21.7656 15.7505 20.7294 18.2985 18.9014 19.9434C17.083 21.5792 14.5631 22.247 11.7461 22.2471H0V0H11.7461ZM14.5039 21.4814C14.511 21.48 14.5183 21.479 14.5254 21.4775C14.5183 21.479 14.511 21.48 14.5039 21.4814ZM14.9219 21.3906C14.933 21.388 14.944 21.3845 14.9551 21.3818C14.944 21.3845 14.933 21.388 14.9219 21.3906ZM15.2949 21.2939C15.3345 21.2829 15.3738 21.2712 15.4131 21.2598C15.3738 21.2712 15.3345 21.2829 15.2949 21.2939ZM15.6914 21.1738C15.7369 21.1591 15.7821 21.1443 15.8271 21.1289C15.7821 21.1443 15.7369 21.1591 15.6914 21.1738ZM16.0938 21.0332C16.1393 21.0161 16.1844 20.9982 16.2295 20.9805C16.1844 20.9983 16.1393 21.0161 16.0938 21.0332ZM16.4795 20.8779C16.5281 20.857 16.5761 20.8352 16.624 20.8135C16.5761 20.8352 16.5281 20.857 16.4795 20.8779ZM16.8623 20.7012C16.9056 20.6799 16.9484 20.6577 16.9912 20.6357C16.9484 20.6578 16.9056 20.6799 16.8623 20.7012ZM17.2314 20.5088C17.2706 20.4869 17.309 20.4639 17.3477 20.4414C17.309 20.4639 17.2706 20.4869 17.2314 20.5088ZM17.5889 20.2959C17.6235 20.274 17.6572 20.2509 17.6914 20.2285C17.6572 20.2509 17.6235 20.274 17.5889 20.2959ZM17.9219 20.0732C17.9689 20.0398 18.0143 20.0043 18.0605 19.9697C18.0144 20.0043 17.9689 20.0398 17.9219 20.0732ZM18.5684 19.5557C18.543 19.5786 18.5159 19.5995 18.4902 19.6221C18.5159 19.5996 18.543 19.5786 18.5684 19.5557ZM19.2178 18.8809C19.2873 18.7988 19.3565 18.7159 19.4229 18.6299C19.3566 18.7159 19.2872 18.7987 19.2178 18.8809ZM19.4707 18.5645C19.54 18.4724 19.6082 18.3787 19.6738 18.2822C19.6082 18.3787 19.54 18.4724 19.4707 18.5645ZM19.7285 18.1992C19.792 18.1032 19.8542 18.0056 19.9141 17.9053C19.8543 18.0056 19.7919 18.1032 19.7285 18.1992ZM19.9609 17.8242C20.0194 17.7234 20.0761 17.6207 20.1309 17.5156C20.0762 17.6208 20.0193 17.7234 19.9609 17.8242ZM20.1846 17.4092C20.2355 17.3077 20.2845 17.2042 20.332 17.0986C20.2845 17.2042 20.2355 17.3077 20.1846 17.4092ZM7.98047 17.3516H9.02734C10.7371 17.3516 12.037 16.8644 12.8203 15.4795C12.0367 16.8628 10.7371 17.3506 9.02832 17.3506H7.98242V4.89941H7.98047V17.3516ZM20.377 16.999C20.427 16.8841 20.4755 16.7671 20.5215 16.6475C20.4755 16.7671 20.4269 16.8841 20.377 16.999ZM8.49414 16.8389H9.02832C10.4074 16.8389 11.3889 16.5057 12.0488 15.708C12.7303 14.8842 13.1592 13.4609 13.1592 11.0664C13.1591 8.73176 12.7313 7.33815 12.0518 6.52832C11.3917 5.74243 10.4077 5.4082 9.02832 5.4082H8.49414V16.8389ZM20.5566 16.5527C20.6012 16.4327 20.6431 16.3103 20.6836 16.1855C20.6431 16.3103 20.6012 16.4327 20.5566 16.5527ZM20.7119 16.0986C20.7583 15.951 20.8031 15.8006 20.8438 15.6465C20.8031 15.8006 20.7583 15.951 20.7119 16.0986ZM20.123 4.59277C20.8452 5.96198 21.2529 7.73452 21.2529 9.99414V12.1729C21.2529 13.4681 21.1124 14.6123 20.8506 15.6172C21.0689 14.7804 21.2046 13.8475 21.2432 12.8105L21.2559 12.1709V9.99219C21.2558 7.73288 20.8451 5.96208 20.123 4.59277ZM19.8799 4.16699C19.8071 4.04845 19.7322 3.93318 19.6543 3.82129C19.7322 3.93313 19.8071 4.04851 19.8799 4.16699ZM19.6348 3.79395C19.5556 3.68145 19.4738 3.57265 19.3896 3.4668C19.4738 3.5726 19.5557 3.68151 19.6348 3.79395ZM19.0928 3.11816C17.4565 1.32379 15.0226 0.593055 12.2412 0.517578L11.7461 0.511719H0.510742V0.513672H11.7441C14.7308 0.513676 17.3603 1.21839 19.0928 3.11816ZM18.249 19.8271C18.3314 19.7612 18.4108 19.6917 18.4902 19.6221C18.4108 19.6918 18.3314 19.7612 18.249 19.8271ZM18.8809 19.2539C18.9707 19.162 19.0582 19.0672 19.1436 18.9697C19.0582 19.0673 18.9707 19.162 18.8809 19.2539ZM20.1182 4.58398C20.0476 4.45069 19.9748 4.32103 19.8984 4.19531C19.9748 4.32098 20.0477 4.45075 20.1182 4.58398ZM19.373 3.44629C19.2866 3.33844 19.198 3.23386 19.1064 3.13281C19.198 3.23382 19.2866 3.33849 19.373 3.44629Z" fill="white"/>
    </g>
</svg>
