<svg width="484" height="189" viewBox="0 0 484 189" fill="none" xmlns="http://www.w3.org/2000/svg">
<path d="M353.15 119.088L351.257 132.474C341.448 176.905 292.783 201.037 252.345 179.199C214.39 158.704 204.181 106.644 231.609 73.1558C267.687 29.1092 335.345 45.3469 350.342 98.7574L353.15 115.945V49.9581H382.001C398.827 68.364 414.276 87.9008 431.626 105.733V47.6016H480.098V183.897L478.945 185.075H448.939L399.313 129.3V185.075H353.15V119.088ZM280.644 98.0818C259.57 101.208 260.015 135.058 281.988 137.14C311.487 139.937 310.71 93.6198 280.644 98.0818Z" fill="black"/>
<path d="M110.791 105.732L113.253 96.8628C127.164 49.7368 187.884 31.496 223.899 65.2673C224.869 66.1707 226.929 67.8911 226.984 69.1952L192.069 103.312C176.304 88.3001 151.753 106.242 161.009 126.337C166.803 138.922 182.998 140.768 192.739 131.789L226.639 165.411C227.439 166.88 223.582 170.289 222.382 171.373C190.446 200.337 135.627 188.538 117.039 148.443L110.791 129.291V185.851H60.7812V49.1712H110.791V105.732Z" fill="black"/>
<path d="M50.0102 97.875H0V185.858H50.0102V97.875Z" fill="black"/>
<path d="M110.791 0.46875H60.7812V38.1759H110.791V0.46875Z" fill="black"/>
<path d="M50.0102 49.1719H0V86.0933H50.0102V49.1719Z" fill="black"/>
</svg>
